<?xml version="1.0" encoding="UTF-8" standalone="no"?>
<svg
   version="1.1"
   id="Layer_1"
   x="0px"
   y="0px"
   viewBox="0 0 396.88001 66.28"
   xml:space="preserve"
   sodipodi:docname="logo.svg"
   width="396.88"
   height="66.279999"
   inkscape:version="1.3 (0e150ed6c4, 2023-07-21)"
   xmlns:inkscape="http://www.inkscape.org/namespaces/inkscape"
   xmlns:sodipodi="http://sodipodi.sourceforge.net/DTD/sodipodi-0.dtd"
   xmlns="http://www.w3.org/2000/svg"
   xmlns:svg="http://www.w3.org/2000/svg"><defs
     id="defs1" /><sodipodi:namedview
     id="namedview1"
     pagecolor="#ffffff"
     bordercolor="#000000"
     borderopacity="0.25"
     inkscape:showpageshadow="2"
     inkscape:pageopacity="0.0"
     inkscape:pagecheckerboard="true"
     inkscape:deskcolor="#d1d1d1"
     showborder="true"
     inkscape:zoom="2.4356156"
     inkscape:cx="192.96969"
     inkscape:cy="79.446034"
     inkscape:window-width="1920"
     inkscape:window-height="1046"
     inkscape:window-x="-11"
     inkscape:window-y="-11"
     inkscape:window-maximized="1"
     inkscape:current-layer="g1" /><g
     id="g1"><path
       d="m 55.418941,53.155204 c -0.131385,-0.32058 -0.204961,-0.672693 -0.204961,-1.040572 0,-0.367879 0.07358,-0.719992 0.204961,-1.040572 0.136641,-0.32058 0.331091,-0.614883 0.57284,-0.856632 l 0.01577,-0.02102 c 0.136641,-0.136641 0.294304,-0.268026 0.462477,-0.367879 0.08934,-0.05781 0.183939,-0.110363 0.289048,-0.157662 v -4.31995 h -4.472357 c -0.136641,0.945975 -0.588606,1.797352 -1.240278,2.454278 -0.814589,0.814589 -1.944503,1.319109 -3.190036,1.319109 H 45.160374 V 60.90694 h 7.909397 c 0.04204,-0.06832 0.08409,-0.13664 0.131386,-0.204961 0.0946,-0.13664 0.199705,-0.26277 0.315325,-0.378389 0.247004,-0.247005 0.546563,-0.451966 0.882909,-0.588607 0.32058,-0.131385 0.672693,-0.204961 1.040572,-0.204961 0.362623,0 0.719991,0.07358 1.040572,0.204961 0.336346,0.136641 0.630649,0.341602 0.882909,0.588607 0.247004,0.247004 0.451966,0.546562 0.588606,0.882909 0.131386,0.32058 0.204961,0.672693 0.204961,1.040572 0,0.362623 -0.07357,0.709481 -0.204961,1.040572 -0.13664,0.336346 -0.341602,0.635905 -0.588606,0.882909 -0.247004,0.247004 -0.546563,0.451966 -0.882909,0.588606 -0.320581,0.131386 -0.672693,0.204961 -1.040572,0.204961 -0.357368,0 -0.69897,-0.06832 -1.01955,-0.199705 l -0.02102,-0.0053 c -0.336346,-0.13664 -0.63065,-0.341602 -0.882909,-0.588606 -0.152407,-0.152407 -0.289048,-0.331091 -0.404667,-0.51503 -0.06307,-0.105109 -0.120875,-0.220728 -0.168173,-0.331092 h -8.992013 c -0.336346,0 -0.635905,-0.13664 -0.856632,-0.357368 -0.225985,-0.22594 -0.362625,-0.525499 -0.362625,-0.861845 v 0 -12.980871 h -5.886063 v 10.68951 c 0.08934,0.0473 0.178684,0.0946 0.268026,0.152407 0.162918,0.09985 0.315325,0.225983 0.44671,0.357369 0.25226,0.252259 0.451965,0.546562 0.588606,0.882909 0.131386,0.32058 0.204961,0.672693 0.204961,1.040572 0,0.357368 -0.06832,0.69897 -0.199705,1.01955 l -0.0053,0.02102 c -0.136641,0.336346 -0.341602,0.630649 -0.588606,0.882909 -0.247004,0.247004 -0.546563,0.451966 -0.882909,0.588606 -0.320581,0.131386 -0.672693,0.204961 -1.040572,0.204961 -0.362624,0 -0.714737,-0.07357 -1.040572,-0.204961 -0.336347,-0.13664 -0.635905,-0.341602 -0.88291,-0.588606 -0.247004,-0.247004 -0.451965,-0.546563 -0.588606,-0.882909 -0.131385,-0.320581 -0.204961,-0.672693 -0.204961,-1.040572 0,-0.357368 0.06832,-0.69897 0.199706,-1.01955 l 0.0053,-0.02102 c 0.136641,-0.336347 0.341602,-0.63065 0.588606,-0.882909 0.131386,-0.131386 0.273282,-0.247005 0.430944,-0.346858 l 0.02102,-0.01577 c 0.08409,-0.0473 0.173429,-0.0946 0.262771,-0.141896 v 0 -10.694766 h -7.851588 v 5.539205 c 0,0.336347 -0.13664,0.635905 -0.357368,0.856633 -0.220727,0.220727 -0.520286,0.357368 -0.856632,0.357368 h -5.570738 c -0.04204,0.08409 -0.08934,0.162918 -0.141896,0.247004 -0.0946,0.141896 -0.204962,0.278537 -0.331091,0.404667 l -0.02102,0.02102 c -0.247005,0.247004 -0.546563,0.451965 -0.88291,0.588606 -0.32058,0.131385 -0.672692,0.204961 -1.040571,0.204961 -0.357368,0 -0.69897,-0.06832 -1.01955,-0.199706 l -0.02102,-0.0053 c -0.336347,-0.136641 -0.63065,-0.341602 -0.88291,-0.588606 -0.247004,-0.247005 -0.451965,-0.546563 -0.588606,-0.88291 -0.131385,-0.32058 -0.204961,-0.672693 -0.204961,-1.040571 0,-0.362624 0.07358,-0.714737 0.204961,-1.040572 0.136641,-0.336347 0.341602,-0.635905 0.588606,-0.88291 0.257516,-0.241749 0.56233,-0.44671 0.898676,-0.583351 v 0 c 0.32058,-0.131385 0.672693,-0.204961 1.040572,-0.204961 0.367879,0 0.719992,0.07358 1.040572,0.204961 0.32058,0.136641 0.614883,0.331091 0.856632,0.578096 l 0.02102,0.01577 c 0.13664,0.136641 0.268026,0.294303 0.367879,0.462476 0.05255,0.08934 0.110363,0.18394 0.157662,0.289048 h 4.31995 v -4.440824 c -0.856633,-0.189195 -1.623923,-0.620139 -2.217785,-1.214 -0.793567,-0.793568 -1.28232,-1.876183 -1.28232,-3.063906 V 41.861321 H 7.7575988 v 7.909397 c 0.06832,0.04204 0.1366408,0.08409 0.2049612,0.131385 0.1366407,0.0946 0.2575152,0.199706 0.3783897,0.315325 0.2470044,0.247004 0.4519655,0.546563 0.5886063,0.882909 0.1313853,0.32058 0.2049611,0.672693 0.2049611,1.040572 0,0.362624 -0.073576,0.719992 -0.2049611,1.040572 -0.1366408,0.336346 -0.3416019,0.63065 -0.5886063,0.882909 -0.2470044,0.247005 -0.546563,0.451966 -0.8829094,0.588607 -0.3205802,0.131385 -0.6726929,0.204961 -1.0405718,0.204961 -0.3626236,0 -0.7094808,-0.07358 -1.0405719,-0.204961 C 5.0405502,54.516356 4.7409916,54.311395 4.4939872,54.06439 4.2469827,53.817386 4.0420216,53.517827 3.9053809,53.181481 3.7687401,52.85039 3.6951644,52.498277 3.6951644,52.130398 c 0,-0.357368 0.06832,-0.69897 0.1997057,-1.01955 l 0.00526,-0.02102 c 0.1366407,-0.336346 0.3416018,-0.630649 0.5886062,-0.882909 0.152407,-0.152407 0.3310911,-0.289048 0.5150306,-0.404667 0.099853,-0.06307 0.2207274,-0.120874 0.331091,-0.168173 v -8.986757 c 0,-0.336346 0.1366408,-0.635905 0.3573681,-0.856632 0.2259828,-0.225983 0.5255414,-0.362624 0.8618878,-0.362624 v 0 H 20.654383 V 33.542002 H 8.8507248 c -0.047299,0.08934 -0.094597,0.178684 -0.152407,0.268026 -0.099853,0.162918 -0.2259828,0.315324 -0.3573681,0.44671 -0.2522598,0.25226 -0.546563,0.451965 -0.8829094,0.588606 -0.3205802,0.131385 -0.6726929,0.204961 -1.0405718,0.204961 -0.3573681,0 -0.69897,-0.06832 -1.0195502,-0.199705 L 5.3768963,34.8453 C 5.0405502,34.708703 4.746247,34.503742 4.4939872,34.256738 4.2469827,34.009733 4.0420216,33.710175 3.9053809,33.373828 3.7739956,33.053248 3.7004198,32.701136 3.7004198,32.333257 c 0,-0.362624 0.073576,-0.714737 0.2049611,-1.040572 0.1366407,-0.336347 0.3416018,-0.635905 0.5886063,-0.88291 0.2470044,-0.247004 0.546563,-0.451965 0.8829094,-0.588606 0.3258357,-0.136641 0.6726929,-0.210216 1.0458273,-0.210216 0.3573681,0 0.6989699,0.06832 1.0195501,0.199705 l 0.021022,0.0053 c 0.3363464,0.13664 0.6306496,0.341601 0.8829094,0.588606 0.1313854,0.131385 0.2470044,0.273281 0.3521127,0.430944 l 0.015766,0.02102 c 0.047299,0.08409 0.094597,0.173429 0.1418962,0.262771 v 0 H 20.654383 v -7.31028 c 0,-0.178684 0.01051,-0.357368 0.03153,-0.536052 h -6.684886 c -0.336346,0 -0.635904,-0.136641 -0.856632,-0.357368 -0.220725,-0.22077 -0.357366,-0.520329 -0.357366,-0.856675 v -5.570738 c -0.08409,-0.04204 -0.162918,-0.08934 -0.247004,-0.141897 -0.141896,-0.0946 -0.278537,-0.204961 -0.404667,-0.331091 l -0.02102,-0.02102 c -0.247004,-0.247005 -0.451965,-0.546563 -0.588606,-0.88291 -0.131385,-0.32058 -0.204961,-0.672693 -0.204961,-1.040571 0,-0.357369 0.06832,-0.69897 0.199706,-1.019551 l 0.0053,-0.02102 c 0.13664,-0.336347 0.341602,-0.63065 0.588606,-0.88291 0.247004,-0.247004 0.546563,-0.451965 0.882909,-0.588606 0.320581,-0.131385 0.672693,-0.204961 1.040572,-0.204961 0.362624,0 0.714736,0.07358 1.040572,0.204961 0.336347,0.136641 0.635905,0.341602 0.88291,0.588606 0.241749,0.257516 0.44671,0.56233 0.58335,0.898676 v 0 c 0.131386,0.32058 0.204961,0.672693 0.204961,1.040572 0,0.367879 -0.07357,0.719991 -0.204961,1.040572 -0.13664,0.32058 -0.331091,0.614883 -0.57284,0.856632 l -0.01577,0.02102 c -0.136641,0.13664 -0.294303,0.268026 -0.467732,0.367879 -0.08934,0.05255 -0.183939,0.110363 -0.289047,0.157662 v 4.31995 h 6.595543 v 0.03153 c 0.04204,-0.0473 0.08934,-0.0946 0.131386,-0.136641 0.814589,-0.814589 1.944502,-1.319108 3.190035,-1.319108 h 2.527854 V 5.2941559 h -7.898886 c -0.04204,0.06832 -0.08409,0.1366408 -0.131385,0.2049612 -0.0946,0.1366407 -0.199706,0.2575152 -0.315325,0.3783897 -0.247005,0.2470044 -0.546563,0.4519655 -0.88291,0.5886063 -0.32058,0.1313853 -0.672692,0.2049611 -1.040571,0.2049611 -0.362624,0 -0.719992,-0.073576 -1.040572,-0.2049611 C 15.998086,6.3294723 15.703783,6.1245112 15.451523,5.8775068 15.204519,5.6305024 14.999558,5.3309438 14.862917,4.9945974 14.731532,4.6687618 14.657956,4.3219045 14.657956,3.9487701 c 0,-0.3626235 0.07358,-0.7094807 0.204961,-1.0405718 0.136641,-0.3363464 0.341602,-0.635905 0.588606,-0.8829094 0.247005,-0.2470045 0.546563,-0.4519656 0.88291,-0.5886063 0.32058,-0.1313854 0.672693,-0.2049611 1.040572,-0.2049611 0.357368,0 0.69897,0.06832 1.01955,0.1997057 l 0.02102,0.00526 c 0.336347,0.1366407 0.63065,0.3416018 0.88291,0.5886062 0.152407,0.152407 0.289048,0.3310911 0.404667,0.5150306 0.06307,0.099853 0.120874,0.2207274 0.173428,0.331091 h 8.981502 c 0.336346,0 0.635905,0.1366408 0.856632,0.3573681 0.225983,0.2259828 0.362623,0.5255414 0.362623,0.8618878 v 0 15.3352961 H 35.9634 V 6.3872819 C 35.874059,6.3399832 35.784717,6.2926845 35.695375,6.2348749 35.532457,6.1350221 35.38005,6.0088921 35.248665,5.8775068 34.996405,5.625247 34.7967,5.3309438 34.660059,4.9945974 34.528673,4.6740172 34.455098,4.3219045 34.455098,3.9540256 c 0,-0.3573681 0.06832,-0.69897 0.199705,-1.0195502 l 0.0053,-0.021022 c 0.136641,-0.3363464 0.341602,-0.6306496 0.588606,-0.8829094 0.247005,-0.2470045 0.546563,-0.4519656 0.88291,-0.5886063 0.32058,-0.1313853 0.672692,-0.2049611 1.040571,-0.2049611 0.362624,0 0.714737,0.073576 1.040572,0.2049611 0.336347,0.1366407 0.635905,0.3416018 0.88291,0.5886063 0.247004,0.2470044 0.451965,0.546563 0.588606,0.8829094 0.131385,0.3205802 0.204961,0.6726929 0.204961,1.0405719 0,0.3573681 -0.06832,0.6989699 -0.199706,1.0195501 l -0.0053,0.021022 c -0.13664,0.3363464 -0.341601,0.6306496 -0.588605,0.8829094 -0.131386,0.1313853 -0.273282,0.2470044 -0.430944,0.3521127 l -0.02102,0.015766 c -0.08409,0.047299 -0.173429,0.094597 -0.262771,0.1418962 v 0 13.0334243 h 7.846332 v -7.88312 c 0,-0.336346 0.136641,-0.635904 0.357368,-0.856632 0.220728,-0.220727 0.520286,-0.357368 0.856633,-0.357368 h 5.575993 c 0.04204,-0.08409 0.08934,-0.162918 0.141896,-0.247004 0.0946,-0.1418964 0.204962,-0.2785371 0.331091,-0.404667 l 0.02102,-0.021022 c 0.247005,-0.2470044 0.546563,-0.4519655 0.88291,-0.5886063 0.32058,-0.1313853 0.672692,-0.2049611 1.040571,-0.2049611 0.357368,0 0.69897,0.06832 1.019551,0.1997057 l 0.02102,0.00526 c 0.336347,0.1366408 0.63065,0.3416019 0.88291,0.5886063 0.247004,0.2470044 0.451965,0.5465634 0.588606,0.8829094 0.131385,0.32058 0.204961,0.672693 0.204961,1.040571 0,0.362624 -0.07358,0.714736 -0.204961,1.040572 -0.136641,0.336347 -0.341602,0.635905 -0.588606,0.88291 -0.262771,0.241749 -0.56233,0.44671 -0.898676,0.58335 v 0 c -0.32058,0.131386 -0.672693,0.204961 -1.040572,0.204961 -0.367879,0 -0.719991,-0.07357 -1.040572,-0.204961 -0.32058,-0.13664 -0.614883,-0.331091 -0.856632,-0.57284 l -0.02102,-0.01577 c -0.13664,-0.136641 -0.268026,-0.294303 -0.367879,-0.462476 -0.05781,-0.08934 -0.110363,-0.18394 -0.157662,-0.289048 h -4.31995 v 6.747951 c 0.930208,0.162917 1.760564,0.614883 2.396469,1.250788 0.793567,0.793567 1.282321,1.876182 1.282321,3.063906 v 0.541307 h 11.877233 v -7.909396 c -0.06832,-0.04204 -0.13664,-0.08409 -0.204961,-0.131386 -0.13664,-0.0946 -0.257515,-0.199706 -0.373134,-0.315325 -0.247004,-0.247004 -0.451965,-0.546563 -0.588606,-0.882909 -0.131386,-0.32058 -0.204961,-0.672693 -0.204961,-1.040572 0,-0.362623 0.07357,-0.719991 0.204961,-1.040572 0.136641,-0.336346 0.341602,-0.630649 0.588606,-0.882909 0.247004,-0.247005 0.546563,-0.451966 0.882909,-0.588606 0.320581,-0.131386 0.672693,-0.204962 1.040572,-0.204962 0.362624,0 0.714736,0.07358 1.040572,0.204962 0.336347,0.13664 0.635905,0.341601 0.88291,0.588606 0.247004,0.247004 0.451965,0.546563 0.588606,0.882909 0.131385,0.320581 0.204961,0.672693 0.204961,1.040572 0,0.357368 -0.06832,0.69897 -0.199706,1.01955 l -0.0053,0.02102 c -0.136641,0.336346 -0.341602,0.63065 -0.588606,0.882909 -0.152407,0.152407 -0.331091,0.289048 -0.515031,0.404667 -0.105108,0.06306 -0.220727,0.120875 -0.331091,0.173429 v 8.981501 c 0,0.336347 -0.136641,0.635905 -0.357368,0.856632 -0.225983,0.225983 -0.525541,0.362624 -0.861888,0.362624 v 0 H 52.334014 v 5.886063 h 10.784108 c 0.0473,-0.08934 0.0946,-0.178684 0.152407,-0.268026 0.105108,-0.162918 0.225982,-0.315325 0.357368,-0.44671 0.252259,-0.25226 0.546563,-0.451966 0.882909,-0.588607 0.32058,-0.131385 0.672693,-0.204961 1.040572,-0.204961 0.357368,0 0.69897,0.06832 1.01955,0.199706 l 0.02102,0.0053 c 0.336346,0.136641 0.630649,0.341602 0.882909,0.588607 0.247005,0.247004 0.451966,0.546563 0.588606,0.882909 0.131386,0.32058 0.204962,0.672693 0.204962,1.040572 0,0.362623 -0.07358,0.714736 -0.204962,1.040572 -0.13664,0.336346 -0.341601,0.635905 -0.588606,0.882909 -0.247004,0.247004 -0.546563,0.451966 -0.882909,0.588606 -0.320581,0.131386 -0.672693,0.204961 -1.040572,0.204961 -0.357368,0 -0.69897,-0.06832 -1.01955,-0.199705 l -0.02102,-0.0053 c -0.336346,-0.13664 -0.63065,-0.341602 -0.882909,-0.588606 -0.131386,-0.131385 -0.247005,-0.273281 -0.352113,-0.430944 l -0.01577,-0.02102 c -0.0473,-0.08409 -0.0946,-0.173429 -0.141896,-0.262771 v 0 H 52.334014 v 7.846332 h 5.633803 c 0.336346,0 0.635905,0.136641 0.856632,0.357368 0.220727,0.220727 0.357368,0.520286 0.357368,0.856632 v 5.575994 c 0.08409,0.04204 0.162918,0.08934 0.247004,0.147151 0.141897,0.0946 0.278537,0.204961 0.404667,0.331091 l 0.02102,0.02102 c 0.247004,0.247004 0.451965,0.546563 0.588606,0.882909 0.131386,0.320581 0.204961,0.672693 0.204961,1.040572 0,0.357368 -0.06832,0.69897 -0.199705,1.01955 l -0.0053,0.02102 c -0.136641,0.336347 -0.341602,0.63065 -0.588606,0.88291 -0.247005,0.247004 -0.546563,0.451965 -0.88291,0.588606 -0.32058,0.131385 -0.672692,0.204961 -1.040571,0.204961 -0.362624,0 -0.714737,-0.07358 -1.040572,-0.204961 C 56.554064,54.505841 56.254506,54.30088 56.007501,54.053876 55.765752,53.79636 55.555536,53.491546 55.418895,53.1552 Z M 31.806369,28.633446 h 9.375658 c 0.730502,0 1.324364,0.593861 1.324364,1.324364 v 8.634644 c 0,0.730502 -0.593862,1.324364 -1.324364,1.324364 h -9.375658 c -0.730502,0 -1.324364,-0.593862 -1.324364,-1.324364 V 29.95781 c 0,-0.730503 0.593862,-1.324364 1.324364,-1.324364 z m 16.055288,-6.86357 H 25.121484 c -0.520286,0 -0.998529,0.215472 -1.345386,0.567585 -0.373134,0.373134 -0.604373,0.89342 -0.604373,1.471515 v 20.932311 c 0,0.578096 0.231239,1.098382 0.604373,1.471516 0.352113,0.352113 0.8251,0.567585 1.345386,0.567585 h 22.740173 c 0.520286,0 0.998528,-0.215472 1.345386,-0.567585 0.373134,-0.373134 0.604372,-0.89342 0.604372,-1.471516 V 23.808976 c 0,-0.578095 -0.231238,-1.098381 -0.604372,-1.471515 -0.346858,-0.352113 -0.8251,-0.567585 -1.345386,-0.567585 z"
       id="path1"
       style="stroke-width:0.525541" /><text
       xml:space="preserve"
       style="font-style:italic;font-weight:bold;font-size:38.9066px;font-family:'Trebuchet MS';-inkscape-font-specification:'Trebuchet MS, Bold Italic';opacity:0.972689;fill:#000000;stroke:#000000;stroke-width:0.607916"
       x="72.781837"
       y="46.914555"
       id="text1"><tspan
         sodipodi:role="line"
         id="tspan1"
         x="72.781837"
         y="46.914555"
         style="font-style:normal;font-variant:normal;font-weight:normal;font-stretch:normal;font-size:38.9066px;font-family:Castellar;-inkscape-font-specification:'Castellar, Normal';font-variant-ligatures:normal;font-variant-caps:normal;font-variant-numeric:normal;font-variant-east-asian:normal;stroke-width:0.607916">K. Syndicates</tspan></text></g></svg>
